<svg width="180" height="150" viewBox="0 0 180 150" fill="none" xmlns="http://www.w3.org/2000/svg">
<path d="M48.6748 35.943C58.3774 7.20159 94.5807 -3.55128 119.367 23.8893C124.268 29.316 125.373 35.0159 127.222 43.8235H130.456L132.766 49.3855L128.608 78.1262C144.779 78.1262 163.723 92.96 161.875 116.602C157.1 120.156 145.241 125.131 123.063 109.185V110.575C120.137 121.392 106.707 142.376 76.3972 139.78C62.536 139.625 35.2755 128.283 35.2755 87.8609C26.035 84.6159 9.86331 62.8286 20.4904 45.2135C24.1865 42.432 25.2953 41.7831 40.8198 50.3127L43.5921 38.7236L48.6748 35.943Z" fill="white"/>
<path d="M17.098 58.3187C17.528 63.9589 18.9214 69.5275 21.3871 74.6175C22.6008 77.1707 24.1575 79.5643 26.0408 81.6773C27.9132 83.7958 30.2428 85.5181 32.8118 86.6351C32.937 86.6902 33.084 86.6296 33.1384 86.5031C33.1874 86.382 33.1384 86.2445 33.0295 86.1839L33.0187 86.1784C31.8212 85.5291 30.651 84.8303 29.6223 83.9334L29.2249 83.6142L28.8493 83.2675L28.1037 82.5687L27.407 81.8204C27.1729 81.5727 26.9389 81.3251 26.732 81.0555C24.9848 78.9645 23.5533 76.6094 22.4049 74.1222C21.251 71.635 20.3583 69.0213 19.6834 66.358C19.0194 63.6893 18.5404 60.971 18.3608 58.2307C18.1757 55.5014 18.2084 52.7226 18.8017 50.0979C19.1065 48.8047 19.5582 47.5226 20.3257 46.5707C20.4236 46.4551 20.538 46.3671 20.6414 46.2625L20.7992 46.1085L21.0006 45.9654C21.2728 45.7893 21.5231 45.5637 21.8116 45.4206C22.3722 45.0905 22.9601 44.8154 23.5751 44.6283C26.0517 43.8469 28.8004 44.4027 31.2715 45.4537C33.7698 46.5047 36.1211 47.9573 38.4017 49.5036C38.516 49.5806 38.6685 49.5531 38.7501 49.4375C38.8263 49.3275 38.7991 49.1789 38.6957 49.0964C36.5022 47.3906 34.1998 45.7893 31.6362 44.5953C30.3625 43.9955 28.9963 43.5443 27.5757 43.3021C26.1551 43.06 24.6583 43.1095 23.2431 43.5332C22.5355 43.7368 21.8606 44.0395 21.2238 44.4027C20.5978 44.7768 19.9937 45.1675 19.4221 45.7728C18.4152 46.9834 17.9253 48.4086 17.5879 49.8062C16.9456 52.6291 16.9129 55.4959 17.098 58.3187ZM126.518 51.2094C127.634 50.6206 128.869 50.318 130.088 50.2409H130.105H130.224H130.241C130.295 50.2409 130.344 50.2739 130.361 50.329C130.382 50.395 130.344 50.4665 130.279 50.4885L130.137 50.5326H130.148C128.994 50.9232 127.846 51.2369 126.812 51.7872C125.767 52.3264 124.847 53.0803 123.856 53.8011C123.813 53.8341 123.753 53.8341 123.704 53.8011C123.649 53.7571 123.639 53.68 123.682 53.625C124.428 52.6236 125.397 51.7927 126.518 51.2094ZM55.6015 93.1447C55.5199 93.1062 55.4872 93.0071 55.5199 92.9246C55.558 92.8421 55.6559 92.7981 55.7376 92.8366L55.743 92.8421C62.1439 95.6539 69.1817 97.0681 76.1324 96.7269C77.8687 96.6279 79.5995 96.4298 81.2977 96.0556C81.7223 95.9731 82.1468 95.8795 82.5659 95.764C82.985 95.6539 83.4096 95.5494 83.8232 95.4283C84.6451 95.1532 85.4834 94.9166 86.2835 94.5754C87.9109 93.9701 89.4567 93.1612 90.959 92.2863C91.6829 91.8076 92.4449 91.3784 93.1307 90.8391L94.1812 90.0688L95.1827 89.2269C96.5271 88.1208 97.7518 86.8663 98.922 85.5731C99.5099 84.9238 100.038 84.225 100.598 83.5537C101.137 82.8604 101.66 82.1395 102.188 81.4352L108.523 72.9282L114.875 64.4376C116.993 61.6038 119.099 58.7535 121.407 56.0627C121.467 55.9966 121.57 55.9856 121.635 56.0407C121.706 56.1012 121.717 56.2057 121.657 56.2773C119.469 59.0396 117.417 61.923 115.354 64.7953C113.302 67.6732 111.212 70.529 109.111 73.3794L102.814 81.9249C102.286 82.6348 101.774 83.3556 101.23 84.0599C100.664 84.7477 100.125 85.4631 99.5316 86.1289C98.3396 87.4605 97.0932 88.7481 95.7216 89.8872L94.6928 90.7456L93.6097 91.5325C92.9021 92.0827 92.1238 92.5174 91.3781 93.0071C89.8323 93.8986 88.2429 94.7185 86.5719 95.3292C85.7501 95.6759 84.8901 95.9125 84.0464 96.1932C83.6164 96.3142 83.1864 96.4188 82.7564 96.5288C82.3264 96.6499 81.891 96.7434 81.4556 96.8205C79.7193 97.1946 77.9449 97.3872 76.1759 97.4808C72.6325 97.6789 69.0783 97.2992 65.622 96.5673C62.1657 95.808 58.7802 94.7185 55.6015 93.1447ZM40.3503 74.3919C40.432 74.3698 40.5136 74.4139 40.5408 74.4964C41.0035 76.0206 41.526 77.5118 42.1737 78.948C42.8323 80.3787 43.5835 81.7598 44.4761 83.0584C44.9115 83.7078 45.3851 84.3406 45.8804 84.9458C46.3757 85.5566 46.8873 86.1509 47.4316 86.7177C48.5202 87.8567 49.685 88.9132 50.8933 89.9422C50.9478 89.9917 50.9641 90.0743 50.926 90.1403C50.8825 90.2118 50.7899 90.2338 50.7137 90.1898C48.0031 88.495 45.6518 86.1784 43.8338 83.4987C42.0159 80.8244 40.715 77.7539 40.2415 74.5624C40.2306 74.4854 40.2796 74.4139 40.3503 74.3919ZM82.7401 69.7972C82.9796 69.7421 83.2409 69.8082 83.4259 70.0008C83.709 70.2924 83.7035 70.7546 83.415 71.0408C81.9128 72.532 80.0023 73.5665 77.9721 74.2158C75.9418 74.8981 73.7429 75.1072 71.5657 74.9146C69.3994 74.711 67.1732 74.1002 65.3009 72.7686C64.8491 72.4164 64.3647 72.1138 63.9782 71.6736L63.3795 71.0573C63.1999 70.8317 63.0366 70.584 62.8733 70.3474C62.2038 69.4065 61.8228 68.2675 61.6922 67.1614C61.665 66.9193 61.7575 66.6607 61.9643 66.5011C62.28 66.2535 62.7318 66.314 62.9767 66.6332L63.0203 66.6937C64.1633 68.1849 65.4533 69.2029 66.961 69.9568C68.4741 70.6721 70.1451 71.1508 71.8977 71.3049C73.6504 71.47 75.4302 71.2994 77.2209 71.0408C79.0171 70.7491 80.7861 70.2704 82.7183 69.8137L82.7401 69.7972ZM96.7448 57.0476L96.7231 57.0311C95.5038 56.0847 94.4425 55.1823 93.3049 54.4284C92.1619 53.6911 91.0134 53.0472 89.7942 52.6731C88.5804 52.2989 87.3557 52.2164 86.1637 52.3594C84.9663 52.53 83.8396 52.9977 82.5877 53.7791L82.5496 53.8011C82.3809 53.9057 82.1632 53.9387 81.9563 53.8671C81.5916 53.7406 81.4011 53.3389 81.5263 52.9702C82.1033 51.2919 83.6382 49.9548 85.3963 49.366C87.1652 48.7497 89.0866 48.8873 90.7739 49.41C92.4721 49.9383 94.0125 50.8352 95.2317 52.0403C96.4455 53.2398 97.4143 54.676 97.8389 56.3158C97.8879 56.5194 97.8552 56.745 97.7191 56.9211C97.4851 57.2292 97.0497 57.2843 96.7448 57.0476ZM67.3039 52.2714L67.2766 52.2494C66.2479 51.3304 65.3771 50.5216 64.4191 49.8778C63.4611 49.2505 62.4868 48.7332 61.4527 48.4911C60.4131 48.2435 59.368 48.2765 58.3175 48.4746C57.2562 48.6837 56.2274 49.1404 55.0354 49.7732L54.9973 49.7952C54.8286 49.8833 54.6272 49.9053 54.4367 49.8337C54.072 49.7017 53.8815 49.2945 54.0122 48.9258C54.5456 47.4346 55.8138 46.2295 57.3269 45.5582C58.8455 44.8594 60.6199 44.7878 62.2256 45.173C63.8367 45.5527 65.3226 46.3781 66.4167 47.5446C67.5162 48.6947 68.3108 50.1254 68.4687 51.6771C68.4904 51.8697 68.4306 52.0678 68.2945 52.2219C68.0387 52.5025 67.5923 52.53 67.3039 52.2714ZM51.8894 109.3C51.8023 110.671 51.7642 112.041 51.7697 113.411C51.7697 114.099 51.786 114.781 51.8132 115.469C51.8295 116.14 51.8785 116.888 52.0962 117.587C52.3085 118.286 52.6677 118.957 53.1576 119.508C53.4025 119.783 53.6747 120.03 53.9577 120.251C54.2408 120.471 54.5129 120.658 54.7905 120.861C55.9009 121.659 57.0657 122.386 58.2522 123.062L59.1449 123.558C59.4551 123.728 59.7926 123.877 60.1409 123.992C60.8376 124.223 61.616 124.284 62.3453 124.135C63.0747 124.003 63.7605 123.646 64.332 123.315C64.9307 122.985 65.5186 122.644 66.101 122.287C66.6834 121.929 67.2549 121.555 67.8209 121.164C68.3816 120.762 68.9368 120.416 69.4974 119.92C70.0417 119.431 70.4934 118.814 70.7874 118.138C71.0867 117.455 71.2228 116.723 71.2663 116.008C71.348 114.638 71.3861 113.262 71.3643 111.887C71.3534 111.199 71.3317 110.511 71.2936 109.829C71.2663 109.163 71.2065 108.398 70.9833 107.705C70.7601 107 70.3846 106.334 69.8947 105.784C69.6498 105.509 69.3722 105.267 69.0892 105.047C68.8007 104.827 68.534 104.64 68.2509 104.442C67.1351 103.655 65.9758 102.917 64.7892 102.246L63.8966 101.751C63.5863 101.58 63.2489 101.432 62.9005 101.316C62.2038 101.085 61.4255 101.019 60.6961 101.179C59.9722 101.316 59.2864 101.679 58.7203 102.009C58.127 102.34 57.5392 102.692 56.9622 103.06C56.3853 103.429 55.8192 103.809 55.2586 104.205C54.7034 104.612 54.1537 104.975 53.6094 105.465C53.0814 105.955 52.646 106.555 52.3575 107.226C52.0636 107.875 51.9329 108.596 51.8894 109.3ZM52.4936 109.339C52.5589 108.029 53.0651 106.775 54.0394 105.944C54.5129 105.537 55.1008 105.162 55.6505 104.783C56.2111 104.409 56.7772 104.051 57.3487 103.71C57.9256 103.369 58.508 103.038 59.0959 102.719C59.7001 102.384 60.2389 102.114 60.8431 102.004C61.4364 101.888 62.046 101.932 62.6338 102.125C62.9277 102.219 63.2108 102.345 63.4884 102.499L64.3701 102.989C65.5404 103.649 66.667 104.365 67.7611 105.14C68.3163 105.537 68.8551 105.894 69.2633 106.356C69.677 106.819 69.9873 107.363 70.1723 107.958C70.3628 108.563 70.4172 109.174 70.4445 109.867C70.4771 110.544 70.5043 111.221 70.5098 111.898C70.5315 113.251 70.4934 114.605 70.4118 115.959C70.3519 117.246 69.8675 118.457 68.9204 119.293C68.4632 119.7 67.8754 120.085 67.3365 120.465C66.7868 120.845 66.2207 121.214 65.6547 121.56C65.0831 121.912 64.5062 122.248 63.9183 122.573C63.3196 122.914 62.7862 123.183 62.1766 123.299C61.5833 123.42 60.9737 123.376 60.3859 123.183C60.0919 123.09 59.8089 122.958 59.5313 122.809L58.6496 122.325C57.4793 121.67 56.3581 120.944 55.2532 120.179C54.6925 119.783 54.1537 119.436 53.74 118.968C53.3209 118.506 52.9998 117.967 52.8038 117.367C52.6024 116.762 52.5371 116.14 52.5045 115.447C52.4609 114.77 52.4283 114.093 52.4119 113.416C52.3847 112.052 52.4228 110.693 52.4936 109.339ZM57.2616 110.555C57.2779 110.17 57.3269 109.746 57.4576 109.35C57.5882 108.954 57.8005 108.574 58.0726 108.26C58.3393 107.941 58.6877 107.694 58.9925 107.485C59.6184 107.044 60.2661 106.632 60.9302 106.257C61.2676 106.065 61.5888 105.889 61.9426 105.707C62.3072 105.531 62.7155 105.41 63.1346 105.405C63.5537 105.388 63.9673 105.493 64.3374 105.663C64.713 105.839 65.0124 106.043 65.3498 106.23C65.4478 106.285 65.4914 106.411 65.4369 106.516C65.3825 106.621 65.2573 106.665 65.1485 106.615L65.1376 106.61C64.811 106.445 64.4681 106.235 64.1524 106.109C63.8258 105.977 63.4883 105.911 63.1563 105.927C62.8189 105.938 62.4923 106.043 62.1766 106.197C61.8609 106.362 61.5234 106.555 61.2077 106.747C60.5655 107.127 59.945 107.54 59.3354 107.985C59.0197 108.211 58.7475 108.409 58.5244 108.668C58.3012 108.926 58.1325 109.223 58.0236 109.548C57.9148 109.878 57.8712 110.214 57.8549 110.593C57.8331 110.973 57.8168 111.347 57.8113 111.727C57.795 112.481 57.8059 113.235 57.844 113.989C57.8603 114.753 57.9637 115.436 58.3774 115.992C58.5788 116.267 58.8237 116.498 59.1231 116.707C59.4279 116.927 59.7327 117.142 60.043 117.345C60.6635 117.758 61.3057 118.138 61.9643 118.495C62.5848 118.858 63.2543 118.985 63.902 118.765C64.0599 118.71 64.2177 118.644 64.3756 118.561L64.8654 118.292C65.192 118.11 65.5131 117.917 65.8288 117.719C66.4493 117.329 67.1025 116.894 67.6522 116.454C68.1856 116.008 68.485 115.37 68.5721 114.665C68.6428 113.945 68.6701 113.169 68.6755 112.42C68.6809 111.672 68.6646 110.896 68.6102 110.17C68.5449 109.46 68.2455 108.794 67.7121 108.321C67.625 108.244 67.6141 108.112 67.6849 108.024C67.7611 107.93 67.8917 107.914 67.9842 107.991L67.9897 107.996C68.6156 108.508 69.0347 109.306 69.1164 110.109C69.1926 110.902 69.2143 111.65 69.2252 112.42C69.2252 113.196 69.2198 113.945 69.1545 114.737C69.0783 115.551 68.6755 116.377 68.0387 116.91C67.4073 117.417 66.7922 117.818 66.1391 118.231C65.8125 118.435 65.4859 118.627 65.1539 118.814L64.6531 119.089C64.4735 119.183 64.283 119.266 64.0871 119.332C63.6897 119.464 63.2543 119.508 62.8352 119.442C62.4161 119.381 62.0188 119.211 61.6813 119.018C61.0118 118.655 60.3532 118.264 59.7164 117.84C59.3952 117.631 59.085 117.411 58.7747 117.186C58.4536 116.96 58.1325 116.674 57.893 116.333C57.3814 115.656 57.2562 114.748 57.2507 114.005C57.2126 113.24 57.2017 112.47 57.2181 111.699C57.2235 111.32 57.2398 110.935 57.2616 110.555ZM35.0598 92.0937C34.9291 96.1106 35.185 100.155 35.9524 104.117C37.3948 112.046 40.9545 119.607 46.2777 125.643C51.5846 131.696 58.5679 136.159 66.1554 138.635C73.7429 141.122 81.9509 141.678 89.7996 140.159C97.6429 138.662 105.1 135.009 111.022 129.577C111.784 128.923 112.464 128.18 113.183 127.481C113.847 126.727 114.56 126.017 115.18 125.225C116.486 123.695 117.624 122.033 118.724 120.35C120.699 117.18 122.31 113.785 123.579 110.269C125.141 111.545 126.806 112.679 128.526 113.713C131.03 115.139 133.654 116.355 136.359 117.329C139.058 118.308 141.834 119.078 144.665 119.59C147.49 120.096 150.38 120.372 153.281 120.162C154.729 120.052 156.182 119.816 157.597 119.348C158.991 118.864 160.395 118.132 161.413 116.91C161.919 116.3 162.294 115.584 162.545 114.852C162.773 114.115 162.915 113.356 162.969 112.602C163.073 111.094 162.904 109.614 162.621 108.172C162.033 105.289 160.966 102.565 159.704 99.9624C157.194 94.7295 153.629 90.0963 149.547 86.0574C147.473 84.0654 145.274 82.1835 142.809 80.6538C140.332 79.1461 137.551 78.1006 134.644 77.7264C132.913 77.4898 131.144 77.5613 129.43 77.908L130.671 69.3515L131.988 60.0025L132.647 55.3253L132.984 52.9702C133.082 52.1668 133.131 51.3525 133.12 50.5381C133.093 48.9148 132.848 47.209 131.934 45.7178C131.694 45.3546 131.411 45.019 131.095 44.7163C130.769 44.4247 130.399 44.1771 130.012 43.979C129.31 43.6488 128.554 43.5112 127.813 43.4892C127.378 39.0541 126.267 34.6741 124.341 30.6462C121.957 25.6113 118.435 21.1156 114.124 17.627C109.83 14.1108 104.828 11.5081 99.5371 9.91785C94.252 8.30559 88.6729 7.7113 83.1647 8.1295C77.6564 8.53119 72.2189 10.0389 67.2984 12.5921C62.378 15.1563 58.04 18.8596 54.7252 23.3387C51.8241 27.2345 49.7231 31.6916 48.3624 36.3524C47.4915 36.3854 46.6097 36.5284 45.777 36.8696C44.7972 37.2658 43.9155 37.9536 43.2732 38.801C42.6418 39.6594 42.2118 40.6499 41.9669 41.6624C41.8363 42.1686 41.76 42.6969 41.6947 43.1756L41.477 44.6558L39.757 56.4864L36.3443 80.1531C36.0722 82.134 35.7565 84.0819 35.5279 86.0849L35.3483 87.5816L35.2285 89.0838C35.1904 89.5845 35.1414 90.0853 35.1197 90.586L35.0598 92.0937ZM127.193 46.5157C126.365 46.6917 125.549 46.9174 124.765 47.2695L124.275 47.4676C124.112 47.5391 123.965 47.6327 123.807 47.7152L122.876 48.2325L122.017 48.8488L121.587 49.1569C121.45 49.267 121.325 49.388 121.189 49.5036C119.072 51.3524 117.352 53.537 115.665 55.705C112.339 60.0906 109.155 64.5642 105.894 68.9773C102.64 73.3794 99.3575 77.82 95.9883 82.09C92.5538 86.2445 87.949 89.3809 82.8163 90.9107C77.6836 92.4569 72.1644 92.4899 66.8902 91.4939C61.6214 90.476 56.4778 88.418 52.3521 84.9789C50.3001 83.2675 48.5365 81.1986 47.252 78.86C45.9566 76.5214 45.1565 73.9186 44.8462 71.2554C44.7972 70.584 44.7101 69.9182 44.6938 69.2469L44.721 67.2275C44.7428 66.5561 44.8517 65.8848 44.917 65.208C44.9823 64.5422 45.0748 63.8599 45.1782 63.172L46.343 54.9897L47.5078 46.8073C47.8943 44.067 48.2589 41.3652 48.9121 38.724C50.1858 33.436 52.4065 28.3681 55.6396 24.0265C58.8564 19.685 63.0584 16.0973 67.8318 13.6046C72.6108 11.1229 77.8959 9.65372 83.2626 9.26304C88.6294 8.85034 94.0723 9.45013 99.2323 11.0019C104.398 12.5316 109.285 15.0408 113.482 18.4469C117.695 21.831 121.135 26.178 123.481 31.0699C125.778 35.8626 126.98 41.1726 127.193 46.5157ZM122.452 107.595C120.46 105.652 118.811 103.347 117.766 100.793C116.704 98.2401 116.394 95.4008 116.835 92.688C117.27 89.9642 118.451 87.378 120.128 85.1714C121.815 82.9759 123.992 81.16 126.491 80.032C128.984 78.904 131.781 78.4638 134.508 78.827C137.235 79.1736 139.88 80.1586 142.302 81.5342C144.735 82.9044 146.962 84.6597 149.014 86.6076C151.011 88.6106 152.818 90.8061 154.413 93.1502C156.024 95.4778 157.488 97.91 158.724 100.452C159.948 102.994 160.972 105.652 161.522 108.398C161.788 109.768 161.941 111.16 161.837 112.519C161.788 113.196 161.658 113.857 161.462 114.484C161.244 115.106 160.939 115.672 160.536 116.162C159.714 117.147 158.501 117.796 157.232 118.231C155.948 118.649 154.576 118.875 153.199 118.974C150.434 119.161 147.631 118.891 144.882 118.385C142.128 117.879 139.418 117.12 136.783 116.151C134.143 115.194 131.591 114 129.163 112.602C126.746 111.16 124.455 109.537 122.452 107.595ZM36.1865 92.1267C36.2844 88.1759 36.8995 84.269 37.4601 80.3127L40.7803 56.6349L42.4241 44.7933C42.5765 43.8139 42.669 42.7904 42.8704 41.888C43.0827 40.969 43.4528 40.0886 43.9862 39.3403C44.5305 38.6029 45.2544 38.0141 46.0981 37.6565C46.7349 37.3813 47.4262 37.2383 48.1283 37.1777C48.014 37.5959 47.8943 38.0196 47.7908 38.4433C47.1214 41.1506 46.7512 43.9239 46.3648 46.6367L45.2 54.8191L44.0352 63.0015C43.9372 63.6838 43.8393 64.3661 43.774 65.0649C43.7086 65.7638 43.5998 66.4571 43.5726 67.1614L43.5453 69.2744C43.5671 69.9788 43.6542 70.6831 43.7086 71.3819C44.0352 74.1827 44.8843 76.9396 46.2505 79.4102C47.6112 81.8864 49.4727 84.0599 51.6173 85.8538C55.9335 89.4525 61.2567 91.56 66.667 92.611C72.0882 93.6345 77.7816 93.6124 83.1266 92.0002C88.4607 90.4044 93.294 87.1359 96.8265 82.8108C100.239 78.4473 103.467 74.0397 106.716 69.5991C109.966 65.1695 113.128 60.6739 116.416 56.2993C118.087 54.1423 119.763 51.9687 121.761 50.1914C123.72 48.337 126.273 47.4236 128.918 47.0164H128.929C129.147 46.9834 129.299 46.7743 129.267 46.5542C129.234 46.3341 129.027 46.18 128.809 46.213C128.809 46.213 128.804 46.213 128.798 46.213C128.526 46.2625 128.254 46.3066 127.982 46.3616C127.96 45.6848 127.922 45.0134 127.868 44.3366C128.466 44.4137 129.043 44.5787 129.555 44.8484C129.854 45.019 130.132 45.2225 130.382 45.4647C130.622 45.7123 130.834 45.9874 131.014 46.2901C131.743 47.5061 131.939 49.0524 131.966 50.5546C131.977 51.3139 131.923 52.0733 131.83 52.8326L131.493 55.1492L130.823 59.8265L129.479 69.1809L128.221 78.1996C127.47 78.4143 126.73 78.6784 126.017 78.9975C123.328 80.1971 120.993 82.1395 119.202 84.4616C117.417 86.7947 116.133 89.557 115.654 92.5009C115.169 95.4338 115.501 98.5153 116.633 101.261C117.749 104.012 119.496 106.456 121.576 108.497C121.924 108.838 122.283 109.168 122.648 109.487C121.385 113.07 119.763 116.525 117.76 119.739C116.688 121.379 115.577 123.002 114.304 124.488C113.7 125.258 113.008 125.957 112.361 126.689C111.659 127.371 111 128.092 110.254 128.73C104.49 134.024 97.2293 137.578 89.5765 139.042C81.9237 140.528 73.9062 139.983 66.4929 137.556C59.085 135.141 52.2704 130.783 47.1105 124.889C41.9342 119.012 38.4616 111.655 37.0519 103.908C36.3117 100.034 36.0613 96.0721 36.1865 92.1267Z" fill="#2C5680"/>
</svg>
